<mxfile host="app.diagrams.net" modified="2024-04-05T07:57:21.803Z" agent="Mozilla/5.0 (Windows NT 10.0; Win64; x64) AppleWebKit/537.36 (KHTML, like Gecko) Chrome/123.0.0.0 Safari/537.36" version="24.2.2" etag="0HGB4QTdQteO_TI8fN7S" type="github">
  <diagram name="第 1 页" id="bWQLOQu_weETCyqbsFvJ">
    <mxGraphModel>
      <root>
        <mxCell id="0" />
        <mxCell id="1" parent="0" />
      </root>
    </mxGraphModel>
  </diagram>
</mxfile>
